<?xml version="1.0" encoding="utf-8"?>
<!-- Generator: Adobe Illustrator 26.1.0, SVG Export Plug-In . SVG Version: 6.00 Build 0)  -->
<svg version="1.1" id="Layer_1" xmlns="http://www.w3.org/2000/svg" xmlns:xlink="http://www.w3.org/1999/xlink" x="0px" y="0px"
	 viewBox="0 0 950 668" style="enable-background:new 0 0 950 668;" xml:space="preserve">
<style type="text/css">
	.st0{fill:#E8EAED;}
	.st1{fill:#1C519B;}
	.st2{fill:#6599E2;}
	.st3{fill:#2972D8;}
	.st4{fill:#C4D5ED;}
	.st5{fill:#2A2D43;}
	.st6{fill:#FC6836;}
	.st7{fill:#2B3E59;}
</style>
<symbol  id="GTW-Logo_RGB" viewBox="-24 -32 48 64">
	<g>
		<polygon class="st0" points="-14.5,21.66 -17.31,29.52 -8.39,21.67 -13.53,16.53 		"/>
		<polygon class="st1" points="-21.23,18 -18.82,29.27 -15.95,21.26 -14.81,15.25 -19.56,10.5 		"/>
		<polygon class="st0" points="14.5,21.66 17.31,29.52 8.39,21.67 13.53,16.53 		"/>
		<polygon class="st1" points="21.23,18 18.82,29.27 15.95,21.26 14.81,15.25 19.56,10.5 		"/>
		<path class="st2" d="M-15.23,21.46L-19,32l-3-14l2-9l6,6L-15.23,21.46z M-19,12l-1.5,6l2,8l1.5-5l1-6L-19,12z"/>
		<path class="st2" d="M14,15l6-6l2,9l-3,14l-3.77-10.54L14,15z M16,15l1,6l1.5,5l2-8L19,12L16,15z"/>
	</g>
	<g>
		<polygon class="st3" points="-14.85,-20.05 -17.31,-11.68 -22.16,-4.4 -15.45,-6.64 -8.69,-15.34 -7.66,-19.44 0,-25.19 
			7.66,-19.44 8.69,-15.34 15.45,-6.64 22.16,-4.4 17.31,-11.68 14.85,-20.05 0,-31.07 		"/>
		<path class="st2" d="M21,2l1.5,4.5L13,2L9-5l-1-6v-4l-1-4l-7-5l-7,5l-1,4v4l-1,6l-4,7l-9.5,4.5L-21,2l-3-5l6-9l2.5-8.5L0-32
			l15.5,11.5L18-12l6,9L21,2z M16.63-11.36l-2.43-8.23L0-30l-14,10.5l-2.5,8l-4,6L-16-7l6.5-8.5l1-4.5L0-26l8.5,6l1,4.5L16-7
			l4.5,1.5L16.63-11.36z"/>
	</g>
	<g>
		<polygon class="st0" points="-2.5,-9.5 -2.5,6.24 -13.26,15.04 -7.79,20.5 7.79,20.5 13.26,15.04 2.5,6.24 2.5,-9.5 		"/>
		<g>
			<path class="st4" d="M-6.56-18.7l-0.94,3.76V-11l-1.02,6.17l-4.12,7.21l-9,4.26l8.19,8.19l-1.28,6.72l-3.14,8.79l11.19-9.85H6.69
				l11.19,9.85l-3.12-8.72l-1.3-6.79l8.19-8.19l-9-4.26L8.52-4.83l-1.01-6.09L7.5-14.94L6.56-18.7L0-23.39L-6.56-18.7z M-2.5-9.5h5
				V6.23l10.75,8.8L8.8,19.5H-8.8l-4.46-4.47l10.75-8.8V-9.5z M8.78,21.52l4.59-4.59l0.62,4.95l2.79,6.98L8.78,21.52z M-13.37,16.92
				l4.59,4.59l-8,7.33l2.79-6.98L-13.37,16.92z"/>
			<path class="st4" d="M8.32,21.27l0.48-0.47l3.5-3.5l0.95-0.95l-0.09-0.5L9.3,19.71L9,20H8.59H6.88l0.28,0.25L8.32,21.27
				 M-8.32,21.27l1.16-1.02L-6.88,20h-1.71H-9l-0.29-0.29l-3.85-3.86l-0.09,0.5l0.95,0.95l3.5,3.5L-8.32,21.27 M13.22,14.36
				l0.07-0.07l7.5-7.5L12.57,2.9l-0.28-0.13L12.13,2.5l-4-7L8.04-4.66L8.01-4.84l-1-6L7-10.92V-11v-3.88L6.12-18.4L0-22.77
				l-6.12,4.37L-7-14.88V-11v0.08l-0.01,0.08l-1,6l-0.03,0.18L-8.13-4.5l-4,7l-0.16,0.27l-0.28,0.13l-8.22,3.89l7.5,7.5l0.07,0.07
				l0.08-0.07L-3,6V-9v-1h1h4h1v1V6l10.14,8.3L13.22,14.36 M19,32L6.5,21h-13L-19,32l3.77-10.54L-14,15l-8.5-8.5L-13,2l4-7l1-6v-4
				l1-4l7-5l7,5l1,4v4l1,6l4,7l9.5,4.5L14,15l1.23,6.46L19,32L19,32z M13,18l-3.5,3.5l6,5.5l-2-5L13,18L13,18z M-13,18l-0.5,4l-2,5
				l6-5.5L-13,18L-13,18z M-2-9V6.47l-10.51,8.6L-8.59,19H8.59l3.92-3.93L2,6.47V-9H-2L-2-9z"/>
		</g>
		<polygon class="st5" points="-5,0 -4,2 -6,3 -6,2 -8,2 -8.5,4 -7,4 -9,5 -10,5 -11,4 -9,0 		"/>
		<polygon class="st5" points="5,0 4,2 6,3 6,2 8,2 8.5,4 7,4 9,5 10,5 11,4 9,0 		"/>
		<polygon class="st1" points="0,-19 -3,-20 -1,-21 1,-21 3,-20 		"/>
		<polygon class="st1" points="2,-11 -2,-11 -4,-13 -4,-15 -2,-18 2,-18 4,-15 4,-13 		"/>
	</g>
</symbol>
<g id="logotype">
	<g>
		<path class="st6" d="M191.08,443.32c17.68,0,25.99,8.99,25.99,8.99l-9.66,12.27c0,0-6.86-5.51-15.94-5.51
			c-9.18,0-18.16,7.15-18.16,19.23c0,13.62,9.18,20.48,19.03,20.48c9.08,0,14.3-5.02,14.3-5.02v-2.61c0-1.35-0.77-2.13-2.13-2.13
			h-4.15v-14.49h14.59c4.93,0,7.05,2.13,7.05,7.05v31.98h-14.49v-1.93c0-1.45,0.1-2.9,0.1-2.9h-0.19c0,0-6.86,5.99-18.65,5.99
			c-17.39,0-33.43-12.75-33.43-36.33C155.33,458.58,170.5,443.32,191.08,443.32z"/>
		<path class="st6" d="M231.63,458.97h-6.28v-14.49h43.48c4.93,0,7.05,2.13,7.05,7.05v13.33h-15.46v-3.77
			c0-1.35-0.77-2.12-2.12-2.12h-9.37v12.56h19.71v14.49h-19.71v10.92c0,1.35,0.77,2.13,2.12,2.13h9.57c1.35,0,2.13-0.77,2.13-2.13
			v-3.77h15.46v13.33c0,4.93-2.13,7.05-7.05,7.05h-32.46c-4.93,0-7.05-2.12-7.05-7.05V458.97z"/>
		<path class="st6" d="M301.19,458.97h-5.6c-1.35,0-2.12,0.77-2.12,2.12v3.77h-14.98v-13.72c0-4.93,1.74-6.67,6.67-6.67h49.37
			c4.93,0,6.67,1.74,6.67,6.67v13.72h-14.98v-3.77c0-1.35-0.77-2.12-2.12-2.12h-5.6v54.59h-17.29V458.97z"/>
		<path class="st2" d="M372.4,453.65h-13.72c-1.35,0-2.12,0.68-2.12,2.13v4.35h-8.6v-8.99c0-4.35,1.45-5.8,5.8-5.8h46.96
			c4.35,0,5.8,1.45,5.8,5.8v8.99h-8.6v-4.35c0-1.45-0.77-2.13-2.13-2.13h-13.72v59.9h-9.66V453.65z"/>
		<path class="st2" d="M416.08,455.78c0-1.45-0.77-2.13-2.13-2.13h-4.15v-8.31h9.76c4.35,0,6.18,1.84,6.18,6.18v23.87h34.69v-23.87
			c0-4.35,1.84-6.18,6.18-6.18h9.76v8.31h-4.15c-1.35,0-2.13,0.68-2.13,2.13v57.78h-9.66v-29.95h-34.69v29.95h-9.66V455.78z"/>
		<path class="st2" d="M487.01,453.65h-6.28v-8.31h40.1c4.35,0,6.18,1.84,6.18,6.18v8.6h-8.79v-4.35c0-1.45-0.77-2.13-2.13-2.13
			h-19.42v21.35h23.86v8.31h-23.86v19.81c0,1.35,0.77,2.13,2.12,2.13h19.9c1.35,0,2.13-0.77,2.13-2.13v-4.35h8.89v8.6
			c0,4.35-1.84,6.18-6.18,6.18h-30.34c-4.35,0-6.18-1.84-6.18-6.18V453.65z"/>
		<path class="st7" d="M542.27,457.81c-0.39-1.64-1.45-2.12-3.09-2.12h-1.84v-10.72h8.21c4.83,0,7.44,1.16,8.5,5.6l9.37,40.87
			c0.87,3.86,1.16,7.25,1.16,7.25h0.19c0,0,0.39-3.29,1.45-7.25l12.46-46.28h10.73l11.79,46.28c1.06,3.96,1.35,7.25,1.35,7.25h0.19
			c0,0,0.29-3.38,1.16-7.25l9.47-40.87c0.97-4.44,3.58-5.6,8.41-5.6h8.31v10.72h-1.84c-1.74,0-2.71,0.48-3.09,2.12l-14.3,55.75
			h-14.59l-10.43-38.84c-1.16-4.35-1.74-8.5-1.74-8.5h-0.19c0,0-0.58,4.06-1.84,8.5l-10.92,38.84h-14.69L542.27,457.81z"/>
		<path class="st7" d="M664.69,443.8c20.19,0,35.46,15.36,35.46,34.98c0,20.19-15.27,35.94-35.46,35.94s-35.46-15.75-35.46-35.94
			C629.23,459.16,644.5,443.8,664.69,443.8z M664.69,502.93c12.37,0,22.32-10.43,22.32-24.15c0-13.14-9.95-23.19-22.32-23.19
			s-22.32,10.05-22.32,23.19C642.37,492.49,652.32,502.93,664.69,502.93z"/>
		<path class="st7" d="M708.59,457.81c0-1.35-0.77-2.12-2.13-2.12h-4.15v-10.72h12.37c4.64,0,6.57,2.03,6.57,6.57v49.18
			c0,1.35,0.77,2.12,2.13,2.12h14.98c1.35,0,2.13-0.77,2.13-2.12v-4.16h11.5v10.43c0,4.64-1.93,6.57-6.57,6.57h-30.24
			c-4.64,0-6.57-1.93-6.57-6.57V457.81z"/>
		<path class="st7" d="M757.31,455.68h-6.28v-10.72h39.13c4.64,0,6.57,2.03,6.57,6.57v10.44h-11.4v-4.16c0-1.35-0.77-2.12-2.12-2.12
			h-13.24v19.42h21.93v10.72h-21.93v27.73h-12.66V455.68z"/>
	</g>
</g>
<use xlink:href="#GTW-Logo_RGB"  width="48" height="64" id="XMLID_00000054949676285904142530000006651686802003991191_" x="-24" y="-32" transform="matrix(4 0 0 -4 475.4934 278.6926)" style="overflow:visible;"/>
</svg>
