<?xml version="1.0" encoding="utf-8"?>
<!-- Generator: Adobe Illustrator 26.1.0, SVG Export Plug-In . SVG Version: 6.00 Build 0)  -->
<svg version="1.1" id="Layer_1" xmlns="http://www.w3.org/2000/svg" xmlns:xlink="http://www.w3.org/1999/xlink" x="0px" y="0px"
	 viewBox="0 0 502 562" style="enable-background:new 0 0 502 562;" xml:space="preserve">
<style type="text/css">
	.st0{fill:#E8EAED;}
	.st1{fill:#1C519B;}
	.st2{fill:#6599E2;}
	.st3{fill:#2972D8;}
	.st4{fill:#C4D5ED;}
	.st5{fill:#2A2D43;}
</style>
<symbol  id="GTW-Logo_RGB" viewBox="-24 -32 48 64">
	<g>
		<polygon class="st0" points="-14.5,21.66 -17.31,29.52 -8.39,21.67 -13.53,16.53 		"/>
		<polygon class="st1" points="-21.23,18 -18.82,29.27 -15.95,21.26 -14.81,15.25 -19.56,10.5 		"/>
		<polygon class="st0" points="14.5,21.66 17.31,29.52 8.39,21.67 13.53,16.53 		"/>
		<polygon class="st1" points="21.23,18 18.82,29.27 15.95,21.26 14.81,15.25 19.56,10.5 		"/>
		<path class="st2" d="M-15.23,21.46L-19,32l-3-14l2-9l6,6L-15.23,21.46z M-19,12l-1.5,6l2,8l1.5-5l1-6L-19,12z"/>
		<path class="st2" d="M14,15l6-6l2,9l-3,14l-3.77-10.54L14,15z M16,15l1,6l1.5,5l2-8L19,12L16,15z"/>
	</g>
	<g>
		<polygon class="st3" points="-14.85,-20.05 -17.31,-11.68 -22.16,-4.4 -15.45,-6.64 -8.69,-15.34 -7.66,-19.44 0,-25.19 
			7.66,-19.44 8.69,-15.34 15.45,-6.64 22.16,-4.4 17.31,-11.68 14.85,-20.05 0,-31.07 		"/>
		<path class="st2" d="M21,2l1.5,4.5L13,2L9-5l-1-6v-4l-1-4l-7-5l-7,5l-1,4v4l-1,6l-4,7l-9.5,4.5L-21,2l-3-5l6-9l2.5-8.5L0-32
			l15.5,11.5L18-12l6,9L21,2z M16.63-11.36l-2.43-8.23L0-30l-14,10.5l-2.5,8l-4,6L-16-7l6.5-8.5l1-4.5L0-26l8.5,6l1,4.5L16-7
			l4.5,1.5L16.63-11.36z"/>
	</g>
	<g>
		<polygon class="st0" points="-2.5,-9.5 -2.5,6.24 -13.26,15.04 -7.79,20.5 7.79,20.5 13.26,15.04 2.5,6.24 2.5,-9.5 		"/>
		<g>
			<path class="st4" d="M-6.56-18.7l-0.94,3.76V-11l-1.02,6.17l-4.12,7.21l-9,4.26l8.19,8.19l-1.28,6.72l-3.14,8.79l11.19-9.85H6.69
				l11.19,9.85l-3.12-8.72l-1.3-6.79l8.19-8.19l-9-4.26L8.52-4.83l-1.01-6.09L7.5-14.94L6.56-18.7L0-23.39L-6.56-18.7z M-2.5-9.5h5
				V6.23l10.75,8.8L8.8,19.5H-8.8l-4.46-4.47l10.75-8.8V-9.5z M8.78,21.52l4.59-4.59l0.62,4.95l2.79,6.98L8.78,21.52z M-13.37,16.92
				l4.59,4.59l-8,7.33l2.79-6.98L-13.37,16.92z"/>
			<path class="st4" d="M8.32,21.27l0.48-0.47l3.5-3.5l0.95-0.95l-0.09-0.5L9.3,19.71L9,20H8.59H6.88l0.28,0.25L8.32,21.27
				 M-8.32,21.27l1.16-1.02L-6.88,20h-1.71H-9l-0.29-0.29l-3.85-3.86l-0.09,0.5l0.95,0.95l3.5,3.5L-8.32,21.27 M13.22,14.36
				l0.07-0.07l7.5-7.5L12.57,2.9l-0.28-0.13L12.13,2.5l-4-7L8.04-4.66L8.01-4.84l-1-6L7-10.92V-11v-3.88L6.12-18.4L0-22.77
				l-6.12,4.37L-7-14.88V-11v0.08l-0.01,0.08l-1,6l-0.03,0.18L-8.13-4.5l-4,7l-0.16,0.27l-0.28,0.13l-8.22,3.89l7.5,7.5l0.07,0.07
				l0.08-0.07L-3,6V-9v-1h1h4h1v1V6l10.14,8.3L13.22,14.36 M19,32L6.5,21h-13L-19,32l3.77-10.54L-14,15l-8.5-8.5L-13,2l4-7l1-6v-4
				l1-4l7-5l7,5l1,4v4l1,6l4,7l9.5,4.5L14,15l1.23,6.46L19,32L19,32z M13,18l-3.5,3.5l6,5.5l-2-5L13,18L13,18z M-13,18l-0.5,4l-2,5
				l6-5.5L-13,18L-13,18z M-2-9V6.47l-10.51,8.6L-8.59,19H8.59l3.92-3.93L2,6.47V-9H-2L-2-9z"/>
		</g>
		<polygon class="st5" points="-5,0 -4,2 -6,3 -6,2 -8,2 -8.5,4 -7,4 -9,5 -10,5 -11,4 -9,0 		"/>
		<polygon class="st5" points="5,0 4,2 6,3 6,2 8,2 8.5,4 7,4 9,5 10,5 11,4 9,0 		"/>
		<polygon class="st1" points="0,-19 -3,-20 -1,-21 1,-21 3,-20 		"/>
		<polygon class="st1" points="2,-11 -2,-11 -4,-13 -4,-15 -2,-18 2,-18 4,-15 4,-13 		"/>
	</g>
</symbol>
<g id="logotype">
</g>
<use xlink:href="#GTW-Logo_RGB"  width="48" height="64" id="XMLID_00000010993596151993154490000014191134564365225653_" x="-24" y="-32" transform="matrix(4 0 0 -4 252.7436 283.3113)" style="overflow:visible;"/>
</svg>
