<?xml version="1.0" encoding="utf-8"?>
<!-- Generator: Adobe Illustrator 26.1.0, SVG Export Plug-In . SVG Version: 6.00 Build 0)  -->
<svg version="1.1" id="Layer_1" xmlns="http://www.w3.org/2000/svg" xmlns:xlink="http://www.w3.org/1999/xlink" x="0px" y="0px"
	 viewBox="0 0 1552 562" style="enable-background:new 0 0 1552 562;" xml:space="preserve">
<style type="text/css">
	.st0{fill:#FEFEFE;}
	.st1{fill:#FFFFFF;}
</style>
<symbol  id="GTW-Logo_Reversed" viewBox="-24 -32 48 64">
	<g id="Expanded_Reversed_00000031202716931962551300000006739598803239190449_">
		<g>
			<path class="st0" d="M21,2l1.5,4.5L20,9l2,9l-3,14L6.5,21h-13L-19,32l-3-14l2-9l-2.5-2.5L-21,2l-3-5l6-9l2.5-8.5L0-32l15.5,11.5
				L18-12l6,9L21,2z M17,21l1.5,5l2-8L19,12l-3,3L17,21z M-8,2h2v1l2-1l-1-2h-4l-2,4l1,1h1l2-1h-1.5L-8,2z M2-18h-4l-2,3v2l2,2h4
				l2-2v-2L2-18z M3-20l-2-1h-2l-2,1l3,1L3-20z M8,2l0.5,2H7l2,1h1l1-1L9,0H5L4,2l2,1V2H8z M-8.59,19H8.59l3.92-3.93L2,6.47V-9h-4
				V6.47l-10.51,8.6L-8.59,19z M-20.5,18l2,8l1.5-5l1-6l-3-3L-20.5,18z M16.5-11L14-19.5L0-30l-14,10.5l-2.5,8.5L-22-3l3,4.5L-20,4
				l6-3l3.56-6.51L-9.5-11v-4l1-4.5L0-26l8.5,6.5l1,4.5v4l1,5.5L14,1l6,3l-1-2.5L22-3L16.5-11z"/>
		</g>
	</g>
</symbol>
<g id="logotype">
	<g>
		<g>
			<path class="st1" d="M460.1,258.6c27.44,0,40.34,13.95,40.34,13.95l-15,19.05c0,0-10.65-8.55-24.74-8.55
				c-14.25,0-28.19,11.1-28.19,29.85c0,21.15,14.25,31.79,29.54,31.79c14.1,0,22.19-7.8,22.19-7.8v-4.05c0-2.1-1.2-3.3-3.3-3.3
				h-6.45v-22.5h22.64c7.65,0,10.95,3.3,10.95,10.95v49.64H485.6v-3c0-2.25,0.15-4.5,0.15-4.5h-0.3c0,0-10.65,9.3-28.94,9.3
				c-26.99,0-51.89-19.8-51.89-56.39C404.62,282.29,428.16,258.6,460.1,258.6z"/>
			<path class="st1" d="M523.05,282.89h-9.75v-22.5h67.48c7.65,0,10.95,3.3,10.95,10.95v20.7h-23.99v-5.85c0-2.1-1.2-3.3-3.3-3.3
				h-14.55v19.5h30.59v22.5h-30.59v16.95c0,2.1,1.2,3.3,3.3,3.3h14.85c2.1,0,3.3-1.2,3.3-3.3v-5.85h23.99v20.7
				c0,7.65-3.3,10.95-10.95,10.95H534c-7.65,0-10.95-3.3-10.95-10.95V282.89z"/>
			<path class="st1" d="M631.03,282.89h-8.7c-2.1,0-3.3,1.2-3.3,3.3v5.85h-23.24v-21.3c0-7.65,2.7-10.35,10.35-10.35h76.63
				c7.65,0,10.35,2.7,10.35,10.35v21.3h-23.24v-5.85c0-2.1-1.2-3.3-3.3-3.3h-8.7v84.74h-26.84V282.89z"/>
			<path class="st1" d="M741.55,274.64h-21.29c-2.1,0-3.3,1.05-3.3,3.3v6.75h-13.35v-13.95c0-6.75,2.25-9,9-9h72.88
				c6.75,0,9,2.25,9,9v13.95h-13.35v-6.75c0-2.25-1.2-3.3-3.3-3.3h-21.3v92.99h-15V274.64z"/>
			<path class="st1" d="M809.37,277.94c0-2.25-1.2-3.3-3.3-3.3h-6.45v-12.9h15.15c6.75,0,9.6,2.85,9.6,9.6v37.04h53.84v-37.04
				c0-6.75,2.85-9.6,9.6-9.6h15.15v12.9h-6.45c-2.1,0-3.3,1.05-3.3,3.3v89.69h-15v-46.49h-53.84v46.49h-15V277.94z"/>
			<path class="st1" d="M919.46,274.64h-9.75v-12.9h62.23c6.75,0,9.6,2.85,9.6,9.6v13.35H967.9v-6.75c0-2.25-1.2-3.3-3.3-3.3h-30.14
				v33.15h37.04v12.9h-37.04v30.75c0,2.1,1.2,3.3,3.3,3.3h30.89c2.1,0,3.3-1.2,3.3-3.3v-6.75h13.8v13.35c0,6.75-2.85,9.6-9.6,9.6
				h-47.09c-6.75,0-9.6-2.85-9.6-9.6V274.64z"/>
			<path class="st1" d="M1002.24,281.09c-0.6-2.55-2.25-3.3-4.8-3.3h-2.85v-16.65h12.75c7.5,0,11.55,1.8,13.2,8.7l14.55,63.44
				c1.35,6,1.8,11.25,1.8,11.25h0.3c0,0,0.6-5.1,2.25-11.25l19.35-71.84h16.65l18.3,71.84c1.65,6.15,2.1,11.25,2.1,11.25h0.3
				c0,0,0.45-5.25,1.8-11.25l14.7-63.44c1.5-6.9,5.55-8.7,13.05-8.7h12.9v16.65h-2.85c-2.7,0-4.2,0.75-4.8,3.3l-22.2,86.54h-22.64
				l-16.2-60.29c-1.8-6.75-2.7-13.2-2.7-13.2h-0.3c0,0-0.9,6.3-2.85,13.2l-16.95,60.29h-22.79L1002.24,281.09z"/>
			<path class="st1" d="M1192.27,259.35c31.34,0,55.04,23.85,55.04,54.29c0,31.34-23.69,55.79-55.04,55.79
				c-31.34,0-55.04-24.45-55.04-55.79C1137.23,283.19,1160.93,259.35,1192.27,259.35z M1192.27,351.13
				c19.2,0,34.64-16.2,34.64-37.49c0-20.4-15.45-36-34.64-36c-19.2,0-34.64,15.6-34.64,36
				C1157.63,334.94,1173.07,351.13,1192.27,351.13z"/>
			<path class="st1" d="M1260.41,281.09c0-2.1-1.2-3.3-3.3-3.3h-6.45v-16.65h19.2c7.2,0,10.2,3.15,10.2,10.2v76.34
				c0,2.1,1.2,3.3,3.3,3.3h23.24c2.1,0,3.3-1.2,3.3-3.3v-6.45h17.84v16.2c0,7.2-3,10.2-10.2,10.2h-46.94c-7.2,0-10.2-3-10.2-10.2
				V281.09z"/>
			<path class="st1" d="M1336.04,277.79h-9.75v-16.65h60.74c7.2,0,10.2,3.15,10.2,10.2v16.2h-17.7v-6.45c0-2.1-1.2-3.3-3.3-3.3
				h-20.54v30.15h34.04v16.65h-34.04v43.04h-19.65V277.79z"/>
		</g>
	</g>
</g>
<use xlink:href="#GTW-Logo_Reversed"  width="48" height="64" id="XMLID_00000010993596151993154490000014191134564365225653_" x="-24" y="-32" transform="matrix(4 0 0 -4 252.501 283.3113)" style="overflow:visible;"/>
</svg>
