<?xml version="1.0" encoding="utf-8"?>
<!-- Generator: Adobe Illustrator 26.1.0, SVG Export Plug-In . SVG Version: 6.00 Build 0)  -->
<svg version="1.1" id="Layer_1" xmlns="http://www.w3.org/2000/svg" xmlns:xlink="http://www.w3.org/1999/xlink" x="0px" y="0px"
	 viewBox="0 0 950 668" style="enable-background:new 0 0 950 668;" xml:space="preserve">
<style type="text/css">
	.st0{fill:#FEFEFE;}
	.st1{fill:#FFFFFF;}
</style>
<symbol  id="GTW-Logo_Reversed" viewBox="-24 -32 48 64">
	<g id="Expanded_Reversed_00000053518705362025715270000006943318352055435964_">
		<g>
			<path class="st0" d="M21,2l1.5,4.5L20,9l2,9l-3,14L6.5,21h-13L-19,32l-3-14l2-9l-2.5-2.5L-21,2l-3-5l6-9l2.5-8.5L0-32l15.5,11.5
				L18-12l6,9L21,2z M17,21l1.5,5l2-8L19,12l-3,3L17,21z M-8,2h2v1l2-1l-1-2h-4l-2,4l1,1h1l2-1h-1.5L-8,2z M2-18h-4l-2,3v2l2,2h4
				l2-2v-2L2-18z M3-20l-2-1h-2l-2,1l3,1L3-20z M8,2l0.5,2H7l2,1h1l1-1L9,0H5L4,2l2,1V2H8z M-8.59,19H8.59l3.92-3.93L2,6.47V-9h-4
				V6.47l-10.51,8.6L-8.59,19z M-20.5,18l2,8l1.5-5l1-6l-3-3L-20.5,18z M16.5-11L14-19.5L0-30l-14,10.5l-2.5,8.5L-22-3l3,4.5L-20,4
				l6-3l3.56-6.51L-9.5-11v-4l1-4.5L0-26l8.5,6.5l1,4.5v4l1,5.5L14,1l6,3l-1-2.5L22-3L16.5-11z"/>
		</g>
	</g>
</symbol>
<g id="logotype">
	<g>
		<path class="st1" d="M191.08,443.32c17.68,0,25.99,8.99,25.99,8.99l-9.66,12.27c0,0-6.86-5.51-15.94-5.51
			c-9.18,0-18.16,7.15-18.16,19.23c0,13.62,9.18,20.48,19.03,20.48c9.08,0,14.3-5.02,14.3-5.02v-2.61c0-1.35-0.77-2.13-2.13-2.13
			h-4.15v-14.49h14.59c4.93,0,7.05,2.13,7.05,7.05v31.98h-14.49v-1.93c0-1.45,0.1-2.9,0.1-2.9h-0.19c0,0-6.86,5.99-18.65,5.99
			c-17.39,0-33.43-12.75-33.43-36.33C155.33,458.58,170.5,443.32,191.08,443.32z"/>
		<path class="st1" d="M231.63,458.97h-6.28v-14.49h43.48c4.93,0,7.05,2.13,7.05,7.05v13.33h-15.46v-3.77
			c0-1.35-0.77-2.12-2.12-2.12h-9.37v12.56h19.71v14.49h-19.71v10.92c0,1.35,0.77,2.13,2.12,2.13h9.57c1.35,0,2.13-0.77,2.13-2.13
			v-3.77h15.46v13.33c0,4.93-2.13,7.05-7.05,7.05h-32.46c-4.93,0-7.05-2.12-7.05-7.05V458.97z"/>
		<path class="st1" d="M301.19,458.97h-5.6c-1.35,0-2.12,0.77-2.12,2.12v3.77h-14.98v-13.72c0-4.93,1.74-6.67,6.67-6.67h49.37
			c4.93,0,6.67,1.74,6.67,6.67v13.72h-14.98v-3.77c0-1.35-0.77-2.12-2.12-2.12h-5.6v54.59h-17.29V458.97z"/>
		<path class="st1" d="M372.4,453.65h-13.72c-1.35,0-2.12,0.68-2.12,2.13v4.35h-8.6v-8.99c0-4.35,1.45-5.8,5.8-5.8h46.96
			c4.35,0,5.8,1.45,5.8,5.8v8.99h-8.6v-4.35c0-1.45-0.77-2.13-2.13-2.13h-13.72v59.9h-9.66V453.65z"/>
		<path class="st1" d="M416.08,455.78c0-1.45-0.77-2.13-2.13-2.13h-4.15v-8.31h9.76c4.35,0,6.18,1.84,6.18,6.18v23.87h34.69v-23.87
			c0-4.35,1.84-6.18,6.18-6.18h9.76v8.31h-4.15c-1.35,0-2.13,0.68-2.13,2.13v57.78h-9.66v-29.95h-34.69v29.95h-9.66V455.78z"/>
		<path class="st1" d="M487.01,453.65h-6.28v-8.31h40.1c4.35,0,6.18,1.84,6.18,6.18v8.6h-8.79v-4.35c0-1.45-0.77-2.13-2.13-2.13
			h-19.42v21.35h23.86v8.31h-23.86v19.81c0,1.35,0.77,2.13,2.12,2.13h19.9c1.35,0,2.13-0.77,2.13-2.13v-4.35h8.89v8.6
			c0,4.35-1.84,6.18-6.18,6.18h-30.34c-4.35,0-6.18-1.84-6.18-6.18V453.65z"/>
		<path class="st1" d="M542.27,457.81c-0.39-1.64-1.45-2.12-3.09-2.12h-1.84v-10.72h8.21c4.83,0,7.44,1.16,8.5,5.6l9.37,40.87
			c0.87,3.86,1.16,7.25,1.16,7.25h0.19c0,0,0.39-3.29,1.45-7.25l12.46-46.28h10.73l11.79,46.28c1.06,3.96,1.35,7.25,1.35,7.25h0.19
			c0,0,0.29-3.38,1.16-7.25l9.47-40.87c0.97-4.44,3.58-5.6,8.41-5.6h8.31v10.72h-1.84c-1.74,0-2.71,0.48-3.09,2.12l-14.3,55.75
			h-14.59l-10.43-38.84c-1.16-4.35-1.74-8.5-1.74-8.5h-0.19c0,0-0.58,4.06-1.84,8.5l-10.92,38.84h-14.69L542.27,457.81z"/>
		<path class="st1" d="M664.69,443.8c20.19,0,35.46,15.36,35.46,34.98c0,20.19-15.27,35.94-35.46,35.94s-35.46-15.75-35.46-35.94
			C629.23,459.16,644.5,443.8,664.69,443.8z M664.69,502.93c12.37,0,22.32-10.43,22.32-24.15c0-13.14-9.95-23.19-22.32-23.19
			s-22.32,10.05-22.32,23.19C642.37,492.49,652.32,502.93,664.69,502.93z"/>
		<path class="st1" d="M708.59,457.81c0-1.35-0.77-2.12-2.13-2.12h-4.15v-10.72h12.37c4.64,0,6.57,2.03,6.57,6.57v49.18
			c0,1.35,0.77,2.12,2.13,2.12h14.98c1.35,0,2.13-0.77,2.13-2.12v-4.16h11.5v10.43c0,4.64-1.93,6.57-6.57,6.57h-30.24
			c-4.64,0-6.57-1.93-6.57-6.57V457.81z"/>
		<path class="st1" d="M757.31,455.68h-6.28v-10.72h39.13c4.64,0,6.57,2.03,6.57,6.57v10.44h-11.4v-4.16c0-1.35-0.77-2.12-2.12-2.12
			h-13.24v19.42h21.93v10.72h-21.93v27.73h-12.66V455.68z"/>
	</g>
</g>
<use xlink:href="#GTW-Logo_Reversed"  width="48" height="64" id="XMLID_00000054949676285904142530000006651686802003991191_" x="-24" y="-32" transform="matrix(4 0 0 -4 475.4934 278.6926)" style="overflow:visible;"/>
</svg>
