<?xml version="1.0" encoding="utf-8"?>
<!-- Generator: Adobe Illustrator 26.1.0, SVG Export Plug-In . SVG Version: 6.00 Build 0)  -->
<svg version="1.1" id="Layer_1" xmlns="http://www.w3.org/2000/svg" xmlns:xlink="http://www.w3.org/1999/xlink" x="0px" y="0px"
	 viewBox="0 0 1552 562" style="enable-background:new 0 0 1552 562;" xml:space="preserve">
<style type="text/css">
	.st0{fill:#E8EAED;}
	.st1{fill:#C4D5ED;}
	.st2{fill:#1C519B;}
	.st3{fill:#6599E2;}
	.st4{fill:#2972D8;}
	.st5{fill:#2A2D43;}
	.st6{display:none;}
	.st7{display:inline;fill:none;stroke:#6599E2;stroke-width:2;stroke-linejoin:round;stroke-miterlimit:10;}
	.st8{fill:#FC6836;}
</style>
<symbol  id="GTW-E_v4c_2" viewBox="-79.66 -100.65 159.01 204.97">
	<g>
		<g>
			<path class="st0" d="M-47.49,70.77c-0.01,0.11-0.04,0.21-0.08,0.31l-10.4,28.23l31.9-27.93h-1.79c-0.4,0-0.78-0.16-1.07-0.44
				l-16.32-16.47L-47.49,70.77z"/>
			<g>
				<path class="st1" d="M-54.52,94.31L-29.5,72.4c-0.18-0.11-0.34-0.25-0.49-0.4l-14.19-14.32L-46,70.97
					c-0.03,0.21-0.08,0.42-0.16,0.63L-54.52,94.31 M-61.41,104.33l12.43-33.76l2.66-19.31l0.09,0.09l18.37,18.54h5.78L-61.41,104.33
					L-61.41,104.33z"/>
			</g>
		</g>
		<g>
			<polygon class="st2" points="-66.23,57.16 -60.56,96.24 -50.93,70.08 -48.43,51.96 -63.7,36.54 			"/>
			<path class="st3" d="M-59.71,88.15l6.83-18.56l2.33-16.92l-11.67-11.78l-1.99,16.26L-59.71,88.15 M-61.41,104.33l-6.84-47.14
				l3.06-24.98l18.87,19.05l-2.66,19.31L-61.41,104.33L-61.41,104.33z"/>
		</g>
	</g>
	<g>
		<g>
			<path class="st1" d="M28.27,70.59c-0.19,0.19-0.44,0.3-0.71,0.3h-3.12l34.38,30.1L47.74,70.91c-0.02-0.07-0.04-0.14-0.05-0.21
				L45.3,53.4L28.27,70.59z"/>
			<g>
				<path class="st1" d="M56.52,97.65L46.8,71.26c-0.05-0.14-0.08-0.28-0.1-0.42l-2.11-15.3L28.98,71.29
					c-0.38,0.38-0.89,0.59-1.42,0.59H27.1L56.52,97.65 M61.11,104.33L21.78,69.88h5.78l18.37-18.54l0.09-0.09l2.66,19.31
					L61.11,104.33L61.11,104.33z"/>
			</g>
		</g>
		<g>
			<polygon class="st2" points="48.13,51.96 50.63,70.08 60.26,96.24 65.93,57.16 63.4,36.54 			"/>
			<g>
				<path class="st3" d="M59.41,88.15l4.5-31.01l-1.99-16.26L50.25,52.67l2.33,16.92L59.41,88.15 M61.11,104.33L48.68,70.56
					l-2.66-19.31l18.87-19.05l3.06,24.98L61.11,104.33L61.11,104.33z"/>
			</g>
		</g>
	</g>
	<g>
		<path class="st4" d="M-48.52-62.56l-6.83,25.94c-0.06,0.25-0.18,0.48-0.33,0.68l-18.78,25.3l24.25-7.27l17.19-23.97
			c0.03-0.04,0.06-0.08,0.09-0.11l4.3-5.16l2.89-11.31c0.11-0.44,0.37-0.83,0.73-1.1l23.65-17.88c0.36-0.27,0.78-0.4,1.21-0.4
			s0.85,0.13,1.21,0.4L24.7-59.57c0.36,0.27,0.62,0.66,0.73,1.1l2.89,11.31l4.3,5.16c0.03,0.04,0.06,0.08,0.09,0.11L49.9-17.91
			l24.25,7.27l-18.78-25.3c-0.15-0.2-0.26-0.44-0.33-0.68l-6.83-25.94l-48.37-35.6L-48.52-62.56z"/>
		<path class="st3" d="M-69.26-14.29l17.83-5.35l16.8-23.41c0.06-0.08,0.11-0.15,0.18-0.23l4.01-4.82l2.78-10.87
			c0.22-0.88,0.74-1.65,1.46-2.2l23.65-17.88c0.71-0.54,1.56-0.81,2.41-0.81s1.7,0.27,2.41,0.81l23.65,17.88
			c0.72,0.55,1.24,1.32,1.46,2.2l2.78,10.87l4.01,4.82c0.06,0.07,0.12,0.15,0.18,0.23l16.8,23.41l17.83,5.35L53.77-34.75
			c-0.3-0.41-0.53-0.87-0.66-1.37l-6.65-25.26L-0.15-95.68l-46.62,34.31l-6.65,25.26c-0.13,0.49-0.35,0.96-0.66,1.37L-69.26-14.29
			 M79.36-7l-30.68-9.2L31.09-40.71l-4.59-5.51l-3-11.75L-0.15-75.85L-23.8-57.98l-3,11.75l-4.59,5.51l-17.59,24.52L-79.66-7
			l22.38-30.14l7-26.62l50.13-36.89l50.13,36.89l7,26.62L79.36-7L79.36-7z"/>
	</g>
	<g>
		<polygon class="st3" points="-27.19,-32.99 -26.8,-46.23 -31.39,-40.72 -48.98,-16.2 -79.66,-7 -72.71,9.05 -74.12,23.19 
			-40.54,8.47 -28.45,-15.71 		"/>
		<polygon class="st3" points="26.89,-32.99 26.5,-46.23 31.09,-40.72 48.68,-16.2 79.36,-7 72.41,9.05 73.82,23.19 40.24,8.47 
			28.15,-15.71 		"/>
	</g>
	<g>
		<g>
			<polygon class="st1" points="64.89,32.2 46.02,51.25 45.93,51.34 8.33,20.04 -8.63,20.04 -46.23,51.34 -46.32,51.25 -65.19,32.2 
				-74.12,23.19 -40.54,8.47 -28.45,-15.71 -27.19,-32.98 -26.8,-46.22 -23.8,-57.98 -0.15,-75.85 -0.15,-75.85 -0.15,-75.85 
				23.5,-57.98 26.5,-46.22 26.89,-32.98 28.15,-15.71 40.24,8.47 73.82,23.19 			"/>
		</g>
		<polygon class="st5" points="-17.22,5.6 -17.22,8.29 -22.71,10.62 -29.98,18.29 -35.07,13.14 -26.72,0.29 -21.79,5.22 		"/>
		<polygon class="st5" points="16.92,5.6 16.92,8.29 22.41,10.62 29.68,18.29 34.77,13.14 26.42,0.29 21.49,5.22 		"/>
		<polygon class="st2" points="0,-60.64 0,-60.63 0,-60.64 0,-60.63 0,-60.64 -8.63,-65.54 -1.24,-67.19 1.24,-67.19 8.63,-65.54 		
			"/>
		<polygon class="st2" points="-8.77,-35.1 8.47,-35.1 13.47,-41.1 12.47,-50.1 6.47,-58.1 -0.3,-59.67 -6.77,-58.1 -12.77,-50.1 
			-13.77,-41.1 		"/>
	</g>
	<g>
		<g>
			<polygon class="st1" points="64.89,32.2 46.02,51.25 45.93,51.34 8.33,20.04 -8.63,20.04 -46.23,51.34 -46.32,51.25 -65.19,32.2 
				-74.12,23.19 -40.54,8.47 -28.45,-15.71 -27.19,-32.98 -26.8,-46.22 -23.8,-57.98 -0.15,-75.85 -0.15,-75.85 -0.15,-75.85 
				23.5,-57.98 26.5,-46.22 26.89,-32.98 28.15,-15.71 40.24,8.47 73.82,23.19 			"/>
		</g>
		<polygon class="st5" points="-17.1,0.9 -15.29,8.54 -19.14,11.66 -19.25,8.66 -26.03,8.87 -27.8,14.61 -23.8,14.61 -24.69,16.18 
			-31.92,18.99 -37.16,14.62 -29.18,1.23 		"/>
		<polygon class="st5" points="16.8,0.9 14.99,8.54 18.84,11.66 18.95,8.66 25.73,8.87 27.5,14.61 23.5,14.61 24.39,16.18 
			31.62,18.99 36.86,14.62 28.88,1.23 		"/>
		<polygon class="st2" points="0,-60.64 0,-60.63 0,-60.64 0,-60.63 0,-60.64 -8.63,-65.54 -1.24,-67.19 1.24,-67.19 8.63,-65.54 		
			"/>
		<polygon class="st2" points="8.47,-35.1 -8.77,-35.1 -13.77,-41.1 -12.77,-50.1 -6.77,-58.1 0,-59.67 6.47,-58.1 12.47,-50.1 
			13.47,-41.1 		"/>
	</g>
	<g>
		<path class="st0" d="M-7.13-28.4v48.44c0,0.45-0.2,0.87-0.54,1.15l-36.34,30.25l16.78,16.93h54.46l16.78-16.93L7.67,21.2
			c-0.34-0.28-0.54-0.71-0.54-1.15V-28.4H-7.13z"/>
		<g>
			<path class="st1" d="M26.6,66.88l15.19-15.33L6.71,22.35c-0.68-0.57-1.08-1.41-1.08-2.31V-26.9H-5.63v46.94
				c0,0.89-0.4,1.74-1.08,2.31l-35.09,29.21l15.19,15.33H0H26.6 M27.86,69.88H0H0h-27.85l-18.37-18.54l37.6-31.3V-29.9H8.63v49.94
				l37.6,31.3L27.86,69.88L27.86,69.88z"/>
		</g>
	</g>
	<g class="st6">
		<line class="st7" x1="-0.15" y1="-97.11" x2="-0.15" y2="-75.85"/>
		<line class="st7" x1="-49.04" y1="-63.08" x2="-25.03" y2="-58.76"/>
		<line class="st7" x1="48.74" y1="-63.08" x2="24.73" y2="-58.76"/>
	</g>
</symbol>
<g id="logotype">
	<g>
		<g>
			<path class="st8" d="M460.1,258.6c27.44,0,40.34,13.95,40.34,13.95l-15,19.05c0,0-10.65-8.55-24.74-8.55
				c-14.25,0-28.19,11.1-28.19,29.85c0,21.15,14.25,31.79,29.54,31.79c14.1,0,22.19-7.8,22.19-7.8v-4.05c0-2.1-1.2-3.3-3.3-3.3
				h-6.45v-22.5h22.64c7.65,0,10.95,3.3,10.95,10.95v49.64H485.6v-3c0-2.25,0.15-4.5,0.15-4.5h-0.3c0,0-10.65,9.3-28.94,9.3
				c-26.99,0-51.89-19.8-51.89-56.39C404.62,282.29,428.16,258.6,460.1,258.6z"/>
			<path class="st8" d="M523.05,282.89h-9.75v-22.5h67.48c7.65,0,10.95,3.3,10.95,10.95v20.7h-23.99v-5.85c0-2.1-1.2-3.3-3.3-3.3
				h-14.55v19.5h30.59v22.5h-30.59v16.95c0,2.1,1.2,3.3,3.3,3.3h14.85c2.1,0,3.3-1.2,3.3-3.3v-5.85h23.99v20.7
				c0,7.65-3.3,10.95-10.95,10.95H534c-7.65,0-10.95-3.3-10.95-10.95V282.89z"/>
			<path class="st8" d="M631.03,282.89h-8.7c-2.1,0-3.3,1.2-3.3,3.3v5.85h-23.24v-21.3c0-7.65,2.7-10.35,10.35-10.35h76.63
				c7.65,0,10.35,2.7,10.35,10.35v21.3h-23.24v-5.85c0-2.1-1.2-3.3-3.3-3.3h-8.7v84.74h-26.84V282.89z"/>
			<path class="st3" d="M741.55,274.64h-21.29c-2.1,0-3.3,1.05-3.3,3.3v6.75h-13.35v-13.95c0-6.75,2.25-9,9-9h72.88
				c6.75,0,9,2.25,9,9v13.95h-13.35v-6.75c0-2.25-1.2-3.3-3.3-3.3h-21.3v92.99h-15V274.64z"/>
			<path class="st3" d="M809.37,277.94c0-2.25-1.2-3.3-3.3-3.3h-6.45v-12.9h15.15c6.75,0,9.6,2.85,9.6,9.6v37.04h53.84v-37.04
				c0-6.75,2.85-9.6,9.6-9.6h15.15v12.9h-6.45c-2.1,0-3.3,1.05-3.3,3.3v89.69h-15v-46.49h-53.84v46.49h-15V277.94z"/>
			<path class="st3" d="M919.46,274.64h-9.75v-12.9h62.23c6.75,0,9.6,2.85,9.6,9.6v13.35H967.9v-6.75c0-2.25-1.2-3.3-3.3-3.3h-30.14
				v33.15h37.04v12.9h-37.04v30.75c0,2.1,1.2,3.3,3.3,3.3h30.89c2.1,0,3.3-1.2,3.3-3.3v-6.75h13.8v13.35c0,6.75-2.85,9.6-9.6,9.6
				h-47.09c-6.75,0-9.6-2.85-9.6-9.6V274.64z"/>
			<path class="st5" d="M1002.24,281.09c-0.6-2.55-2.25-3.3-4.8-3.3h-2.85v-16.65h12.75c7.5,0,11.55,1.8,13.2,8.7l14.55,63.44
				c1.35,6,1.8,11.25,1.8,11.25h0.3c0,0,0.6-5.1,2.25-11.25l19.35-71.84h16.65l18.3,71.84c1.65,6.15,2.1,11.25,2.1,11.25h0.3
				c0,0,0.45-5.25,1.8-11.25l14.7-63.44c1.5-6.9,5.55-8.7,13.05-8.7h12.9v16.65h-2.85c-2.7,0-4.2,0.75-4.8,3.3l-22.2,86.54h-22.64
				l-16.2-60.29c-1.8-6.75-2.7-13.2-2.7-13.2h-0.3c0,0-0.9,6.3-2.85,13.2l-16.95,60.29h-22.79L1002.24,281.09z"/>
			<path class="st5" d="M1192.27,259.35c31.34,0,55.04,23.85,55.04,54.29c0,31.34-23.69,55.79-55.04,55.79
				c-31.34,0-55.04-24.45-55.04-55.79C1137.23,283.19,1160.93,259.35,1192.27,259.35z M1192.27,351.13
				c19.2,0,34.64-16.2,34.64-37.49c0-20.4-15.45-36-34.64-36c-19.2,0-34.64,15.6-34.64,36
				C1157.63,334.94,1173.07,351.13,1192.27,351.13z"/>
			<path class="st5" d="M1260.41,281.09c0-2.1-1.2-3.3-3.3-3.3h-6.45v-16.65h19.2c7.2,0,10.2,3.15,10.2,10.2v76.34
				c0,2.1,1.2,3.3,3.3,3.3h23.24c2.1,0,3.3-1.2,3.3-3.3v-6.45h17.84v16.2c0,7.2-3,10.2-10.2,10.2h-46.94c-7.2,0-10.2-3-10.2-10.2
				V281.09z"/>
			<path class="st5" d="M1336.04,277.79h-9.75v-16.65h60.74c7.2,0,10.2,3.15,10.2,10.2v16.2h-17.7v-6.45c0-2.1-1.2-3.3-3.3-3.3
				h-20.54v30.15h34.04v16.65h-34.04v43.04h-19.65V277.79z"/>
		</g>
	</g>
</g>
<use xlink:href="#GTW-E_v4c_2"  width="159.01" height="204.97" id="XMLID_00000010993596151993154490000014191134564365225653_" x="-79.66" y="-100.65" transform="matrix(1.249 0 0 -1.249 252.501 283.3113)" style="overflow:visible;"/>
</svg>
