<?xml version="1.0" encoding="utf-8"?>
<!-- Generator: Adobe Illustrator 26.1.0, SVG Export Plug-In . SVG Version: 6.00 Build 0)  -->
<svg version="1.1" id="Layer_1" xmlns="http://www.w3.org/2000/svg" xmlns:xlink="http://www.w3.org/1999/xlink" x="0px" y="0px"
	 viewBox="0 0 502 562" style="enable-background:new 0 0 502 562;" xml:space="preserve">
<symbol  id="GTW-Logo_RGB_Black" viewBox="-24 -32 48 64">
	<g id="Expanded_Alternate_00000128483863993255525450000007121503629231323783_">
		<path d="M21,2l1.5,4.5L20,9l2,9l-3,14L6.5,21h-13L-19,32l-3-14l2-9l-2.5-2.5L-21,2l-3-5l6-9l2.5-8.5L0-32l15.5,11.5L18-12l6,9
			L21,2z M15.5,27l-2-5L13,18l-3.5,3.5L15.5,27z M-9.5,21.5L-13,18l-0.5,4l-2,5L-9.5,21.5z M19.99,5.31L13,2L9-5l-1-6v-4l-1-4l-7-5
			l-7,5l-1,4v4l-1,6l-4,7l-6.99,3.31l-0.22,0.65l7.05,7.05L-3,4.7V-9h6V4.7l10.16,8.31l7.05-7.05L19.99,5.31z M-9,0l-2,4l1,1l1,0
			l2-1h-1.5L-8,2h2v1l2-1l-1-2L-9,0z M5,0L4,2l2,1V2h2l0.5,2H7l2,1l1,0l1-1L9,0L5,0z M3-20l-2-1h-2l-2,1l3,1L3-20z M4-13l0-2l-2-3
			h-4l-2,3l0,2l2,2h4L4-13z"/>
	</g>
</symbol>
<g id="logotype">
</g>
<use xlink:href="#GTW-Logo_RGB_Black"  width="48" height="64" id="XMLID_00000010993596151993154490000014191134564365225653_" x="-24" y="-32" transform="matrix(4 0 0 -4 252.7436 283.3113)" style="overflow:visible;"/>
</svg>
